<svg width="54" height="54" viewBox="0 0 54 54" fill="none" xmlns="http://www.w3.org/2000/svg">
<g clip-path="url(#clip0_166_49)">
<path d="M25.782 54C25.2088 53.9449 24.6356 53.9008 24.0624 53.8346C22.2713 53.6418 20.5131 53.2726 18.7991 52.7216C18.7716 52.6885 18.7385 52.6555 18.7109 52.6224C18.8212 52.5563 18.9479 52.5067 19.0361 52.4185C19.5487 51.9171 20.0557 51.4157 20.5572 50.8977C20.684 50.7655 20.7887 50.7434 20.9651 50.7875C23.2578 51.3661 25.5891 51.614 27.9534 51.5204C32.2909 51.344 36.3251 50.1483 39.9902 47.8175C45.496 44.324 49.1059 39.42 50.7758 33.1108C51.5144 30.3171 51.7128 27.4683 51.4262 24.592C50.9412 19.7596 49.1831 15.4506 46.1629 11.6485C46.1188 11.5934 46.0692 11.5383 45.992 11.4557C44.8787 12.5742 43.771 13.6818 42.6246 14.8334C42.327 11.632 42.0404 8.48568 41.7483 5.30078C44.9338 5.59282 48.0808 5.87935 51.2608 6.16588C50.0649 7.35609 48.8965 8.51874 47.7501 9.66486C48.3178 10.4418 48.8744 11.1526 49.376 11.8965C51.7899 15.4726 53.2615 19.4069 53.785 23.6883C53.8622 24.3 53.8953 24.9116 53.9504 25.5232C53.9614 25.6334 53.9834 25.7381 54 25.8428C54 26.6308 54 27.4242 54 28.2122C53.9834 28.3004 53.9559 28.3885 53.9559 28.4822C53.8842 29.8873 53.7134 31.2814 53.3992 32.6479C51.4427 41.1391 46.5597 47.3546 38.7942 51.2834C35.7905 52.8042 32.5774 53.6308 29.221 53.9008C28.8683 53.9283 28.5101 53.9669 28.1574 54C27.3582 54 26.5701 54 25.782 54Z" fill="#263973"/>
<path d="M28.152 0C28.7528 0.055102 29.359 0.0936735 29.9597 0.170816C30.803 0.27551 31.6462 0.413265 32.5501 0.54551C32.4564 0.655714 32.4123 0.716327 32.3572 0.771429C31.7675 1.36102 31.1722 1.95061 30.588 2.54571C30.4723 2.66143 30.3676 2.68898 30.2022 2.67245C23.5886 1.89 17.5593 3.40531 12.2243 7.41673C7.46251 10.9929 4.36514 15.7206 3.06998 21.5449C1.57641 28.2398 2.71174 34.5159 6.37677 40.3292C6.41535 40.3898 6.45944 40.4449 6.50353 40.5055C7.52864 39.4806 8.54273 38.4612 9.56232 37.4473C9.58988 37.4584 9.61743 37.4639 9.64499 37.4749C9.93158 40.6212 10.2182 43.762 10.5048 46.958C7.33023 46.6714 4.18327 46.3794 0.964651 46.0873C2.2543 44.798 3.49986 43.5582 4.75093 42.3184C3.87463 41.04 3.12509 39.7396 2.49129 38.3675C1.04181 35.2378 0.204088 31.9482 0.0387486 28.4988C-0.297442 21.4678 1.73073 15.1916 6.21695 9.76959C10.0583 5.12449 14.9579 2.11592 20.833 0.716327C22.3872 0.347143 23.9689 0.121224 25.5672 0.0440816C25.6554 0.0385714 25.7491 0.0165306 25.8373 0C26.6089 0 27.3804 0 28.152 0Z" fill="#263973"/>
</g>
<defs>
<clipPath id="clip0_166_49">
<rect width="54" height="54" fill="white"/>
</clipPath>
</defs>
</svg>
